<svg width="28" height="28" viewBox="0 0 28 28" fill="none" xmlns="http://www.w3.org/2000/svg">
<path fill-rule="evenodd" clip-rule="evenodd" d="M20.1027 0C24.8262 0 28 3.31572 28 8.25023V19.7498C28 24.6843 24.8262 28 20.1027 28H7.8973C3.17377 28 0 24.6843 0 19.7498V8.25023C0 3.31572 3.17377 0 7.8973 0H20.1027ZM20.1027 1.95349H7.8973C4.28726 1.95349 1.95349 4.424 1.95349 8.25023V19.7498C1.95349 23.576 4.28726 26.0465 7.8973 26.0465H20.1027C23.714 26.0465 26.0465 23.576 26.0465 19.7498V8.25023C26.0465 4.424 23.714 1.95349 20.1027 1.95349ZM14 8.2402C14.5392 8.2402 14.9767 8.67779 14.9767 9.21695V13.0102L18.775 13.0105C19.3141 13.0105 19.7517 13.4481 19.7517 13.9872C19.7517 14.5264 19.3141 14.964 18.775 14.964L14.9767 14.9637V18.7591C14.9767 19.2983 14.5392 19.7358 14 19.7358C13.4608 19.7358 13.0233 19.2983 13.0233 18.7591V14.9637L9.22502 14.964C8.68456 14.964 8.24828 14.5264 8.24828 13.9872C8.24828 13.4481 8.68456 13.0105 9.22502 13.0105L13.0233 13.0102V9.21695C13.0233 8.67779 13.4608 8.2402 14 8.2402Z" fill="white"/>
</svg>
