<svg width="25" height="28" viewBox="0 0 25 28" fill="none" xmlns="http://www.w3.org/2000/svg">
<path fill-rule="evenodd" clip-rule="evenodd" d="M25 22.8186C25 27.4631 17.8662 28 12.5016 28L12.1177 27.9997C8.69982 27.9923 0 27.7996 0 22.7904C0 18.2407 6.84715 17.6327 12.1709 17.6098L12.8855 17.6094C16.3031 17.6168 25 17.8094 25 22.8186ZM12.5016 19.7228C5.77652 19.7228 2.36742 20.7542 2.36742 22.7904C2.36742 24.845 5.77652 25.8863 12.5016 25.8863C19.2251 25.8863 22.6326 24.8548 22.6326 22.8186C22.6326 20.7641 19.2251 19.7228 12.5016 19.7228ZM12.5016 0C17.1228 0 20.8807 3.35655 20.8807 7.48249C20.8807 11.6084 17.1228 14.9636 12.5016 14.9636H12.4511C7.83933 14.9509 4.10354 11.5929 4.11927 7.47826C4.11927 3.35655 7.87879 0 12.5016 0ZM12.5016 2.01224C9.12247 2.01224 6.37307 4.46554 6.37307 7.48249C6.36206 10.4896 9.09091 12.9415 12.4558 12.9527L12.5016 13.9589V12.9527C15.8791 12.9527 18.6269 10.498 18.6269 7.48249C18.6269 4.46554 15.8791 2.01224 12.5016 2.01224Z" fill="white"/>
</svg>
