<svg width="25" height="22" viewBox="0 0 25 22" fill="none" xmlns="http://www.w3.org/2000/svg">
<path d="M12.5 12.5385C14.9428 12.5385 16.9231 10.8165 16.9231 8.69235C16.9231 6.56817 14.9428 4.84619 12.5 4.84619C10.0572 4.84619 8.07693 6.56817 8.07693 8.69235C8.07693 10.8165 10.0572 12.5385 12.5 12.5385Z" stroke="black" stroke-width="1.71429" stroke-linecap="round" stroke-linejoin="round"/>
<path d="M4.94537 18.5384C5.73488 17.4115 6.84448 16.4801 8.16751 15.8339C9.49054 15.1876 10.9825 14.8481 12.5 14.8481C14.0175 14.8481 15.5094 15.1876 16.8325 15.8339C18.1555 16.4801 19.2651 17.4115 20.0546 18.5384" stroke="black" stroke-width="1.71429" stroke-linecap="round" stroke-linejoin="round"/>
<path d="M12.5 21C18.8513 21 24 16.5228 24 11C24 5.47715 18.8513 1 12.5 1C6.14873 1 1 5.47715 1 11C1 16.5228 6.14873 21 12.5 21Z" stroke="black" stroke-width="1.71429" stroke-linecap="round" stroke-linejoin="round"/>
</svg>
